<?xml version="1.0" standalone="no"?>
<!DOCTYPE svg PUBLIC "-//W3C//DTD SVG 20010904//EN"
 "http://www.w3.org/TR/2001/REC-SVG-20010904/DTD/svg10.dtd">
<svg version="1.0" xmlns="http://www.w3.org/2000/svg"
 width="169.000000pt" height="169.000000pt" viewBox="0 0 169.000000 169.000000"
 preserveAspectRatio="xMidYMid meet">
<metadata>
Created by potrace 1.14, written by Peter Selinger 2001-2017
</metadata>
<g transform="translate(0.000000,169.000000) scale(0.100000,-0.100000)"
fill="#000000" stroke="none">
<path d="M133 1485 c-23 -16 -30 -58 -15 -82 4 -7 36 -19 71 -27 35 -8 68 -21
72 -28 14 -22 10 -157 -11 -401 -37 -423 -43 -474 -60 -537 -16 -59 -32 -76
-81 -84 -51 -8 -77 -35 -77 -79 0 -32 3 -36 32 -41 26 -4 403 -11 444 -7 14 1
17 97 3 105 -4 3 -35 12 -67 21 -89 23 -89 25 -86 173 3 153 30 563 37 571 7
7 37 -36 51 -74 34 -88 56 -142 64 -160 11 -23 34 -89 56 -154 8 -25 20 -54
28 -65 7 -12 16 -34 20 -51 4 -16 16 -48 27 -72 10 -23 19 -47 19 -54 0 -6 10
-33 21 -58 31 -67 37 -82 52 -126 11 -32 20 -41 43 -46 16 -3 35 -3 42 -1 15
5 57 85 96 182 42 102 50 120 58 120 5 0 8 7 8 15 0 9 13 44 29 78 15 34 45
100 66 147 21 47 57 127 81 178 24 51 44 96 44 100 0 4 11 21 25 37 l24 30 1
-371 c0 -421 2 -412 -75 -418 -22 -2 -43 -4 -47 -5 -33 -5 -52 -87 -25 -109
16 -13 483 -23 515 -11 20 8 23 15 20 56 l-3 48 -70 17 c-38 10 -75 25 -81 33
-13 18 -21 233 -24 655 -2 295 -1 306 19 331 16 21 31 27 75 31 30 3 62 10 70
17 20 17 21 61 2 87 -13 17 -29 19 -168 21 -172 2 -184 -1 -213 -64 -105 -227
-266 -557 -274 -563 -3 -3 -7 -13 -9 -22 -1 -9 -24 -62 -49 -117 -31 -66 -52
-101 -63 -101 -10 0 -26 24 -44 68 -45 105 -76 175 -86 194 -6 10 -10 22 -10
28 0 8 -64 162 -115 275 -7 17 -20 46 -28 65 -54 131 -71 170 -89 208 -21 42
-21 42 -77 42 -31 0 -99 3 -151 6 -79 5 -99 3 -117 -11z"/>
</g>
</svg>
